<?xml version="1.0" standalone="no"?><!DOCTYPE svg PUBLIC "-//W3C//DTD SVG 1.1//EN" "http://www.w3.org/Graphics/SVG/1.1/DTD/svg11.dtd"><svg t="1653147704239" class="icon" viewBox="0 0 1024 1024" version="1.1" xmlns="http://www.w3.org/2000/svg" p-id="6353" xmlns:xlink="http://www.w3.org/1999/xlink" width="16" height="16"><defs><style type="text/css"></style></defs><path d="M913.99663 654.901641c-4.298909-1.791809-5.279237-3.979638-5.817496-8.29492-2.203178-17.70729-4.145413-35.523051-7.763824-52.969399C870.582865 449.812659 756.559948 332.563258 613.30015 297.93867c-8.463766-2.045589-16.981766-3.864004-25.856901-5.871731 55.908334-44.602847 55.770188-121.18299 13.032828-165.704996-42.119283-43.872207-111.39302-45.933145-155.976424-5.14109-47.536666 43.4987-50.232055 126.286218 7.674796 170.904415-1.610684 0.442068-3.052522 0.921999-4.529153 1.222851-118.126374 24.086581-207.374024 88.543615-267.581268 192.744839-28.782533 49.813522-44.252877 104.018052-48.462758 161.390737-0.26913 3.679809-1.38044 5.610788-5.018294 7.122211-36.72339 15.250332-57.884338 54.172807-50.301639 92.031043 8.095375 40.414455 41.231053 68.309782 81.903382 68.321038 128.506792 0.040932 257.013585 0.051165 385.5214 0.034792l0-0.040932c15.683191 0 28.396747-12.42703 28.396747-27.757181 0-15.33015-12.713556-27.757181-28.396747-27.757181-0.592494 0-1.179872 0.023536-1.763157 0.058328-7.588839 0-15.177678 0-22.765493 0-119.375831 0-238.747569-0.022513-358.127494 0.038886-10.747785 0.00307-19.611663-3.434216-25.767873-12.475126-11.847839-17.396205-0.261966-41.429575 20.672832-43.033096 20.576641-1.576915 30.078039-11.655458 30.3134-32.147164 1.818415-159.90285 117.579929-296.287053 275.378861-324.435137 177.99081-31.747051 349.752756 85.029582 385.229758 262.486226 4.007267 20.041452 5.260817 40.729633 6.510274 61.198827 1.326205 21.672602 9.417487 31.105439 30.91715 32.927947 13.970176 1.183965 25.160029 13.493316 25.118074 27.625174-0.042979 14.57802-11.605316 26.774807-26.356274 27.736715-2.296299 0.149403-4.611018 0.072655-6.918573 0.072655-43.378973 0.001023-86.756923 0.001023-130.134873 0.001023l0 0.038886c-0.74292-0.057305-1.49198-0.095167-2.25025-0.095167-15.683191 0-28.396747 12.42703-28.396747 27.757181s12.713556 27.757181 28.396747 27.757181c0.75827 0 1.50733-0.037862 2.25025-0.095167l0 0.064468c45.160549-0.01842 90.322122-0.019443 135.482671-0.048095 7.402597-0.007163 15.024182-1.011027 22.172999-2.929726 34.323737-9.209756 58.669214-39.269375 61.198827-74.827219C967.358979 702.08015 946.816107 668.579151 913.99663 654.901641zM519.653307 258.781858c-30.605042-0.10847-55.415101-25.275663-55.276954-56.07718 0.138146-30.416753 25.013697-55.142901 55.550177-55.212486 30.659277-0.068562 55.639205 25.01779 55.530734 55.770188C575.349817 234.029104 550.35454 258.896468 519.653307 258.781858z" p-id="6354" fill="#1296db"></path><path d="M495.927953 404.429029c-4.357238-0.480954-8.81783-0.076748-13.228279-0.076748-0.019443-0.203638-0.038886-0.411369-0.061398-0.611937-11.259438 1.196245-22.615067 1.830695-33.767058 3.683902-68.916603 11.443633-125.858476 44.084031-170.72329 97.607038-21.183462 25.2685-37.180807 53.597709-47.905056 84.787058-4.895497 14.239306 2.229784 29.186739 15.858176 34.662451 13.674441 5.491061 29.193903-0.588401 35.504632-13.985526 1.14201-2.423189 1.892093-5.02648 2.933819-7.498788 34.662451-82.387405 95.819322-130.370233 184.800913-142.009318 9.305947-1.219781 18.842137-0.74599 28.117384-2.115174 13.797237-2.038426 22.980387-14.201443 22.476921-28.432563C519.460925 417.09142 509.305635 405.901567 495.927953 404.429029z" p-id="6355" fill="#1296db"></path></svg>