<?xml version="1.0" standalone="no"?><!DOCTYPE svg PUBLIC "-//W3C//DTD SVG 1.1//EN" "http://www.w3.org/Graphics/SVG/1.1/DTD/svg11.dtd"><svg t="1653147590666" class="icon" viewBox="0 0 1024 1024" version="1.1" xmlns="http://www.w3.org/2000/svg" p-id="3049" xmlns:xlink="http://www.w3.org/1999/xlink" width="16" height="16"><defs><style type="text/css"></style></defs><path d="M791.272727 34.909091a11.636364 11.636364 0 0 1 11.636364 11.636364v930.90909a11.636364 11.636364 0 0 1-11.636364 11.636364H232.727273a11.636364 11.636364 0 0 1-11.636364-11.636364V46.545455a11.636364 11.636364 0 0 1 11.636364-11.636364h558.545454M791.272727 0H232.727273a46.545455 46.545455 0 0 0-46.545455 46.545455v930.90909a46.545455 46.545455 0 0 0 46.545455 46.545455h558.545454a46.545455 46.545455 0 0 0 46.545455-46.545455V46.545455a46.545455 46.545455 0 0 0-46.545455-46.545455z" fill="#1296db" p-id="3050"></path><path d="M512 898.466909m-34.909091 0a34.909091 34.909091 0 1 0 69.818182 0 34.909091 34.909091 0 1 0-69.818182 0Z" fill="#1296db" p-id="3051"></path><path d="M610.909091 157.346909h-197.818182a17.454545 17.454545 0 0 1 0-34.909091h197.818182a17.454545 17.454545 0 0 1 0 34.909091z" fill="#1296db" p-id="3052"></path><path d="M313.227636 529.594182a17.408 17.408 0 0 1-10.426181-31.441455l137.634909-102.469818a41.053091 41.053091 0 0 1 56.971636 7.284364l62.045091 77.521454c1.536 1.931636 3.537455 2.327273 4.608 2.373818a6.306909 6.306909 0 0 0 4.864-1.861818l131.211636-101.864727a17.454545 17.454545 0 0 1 21.364364 27.578182l-129.536 100.398545c-6.632727 6.842182-18.106182 11.380364-29.812364 10.589091a41.355636 41.355636 0 0 1-29.952-15.429818l-62.045091-77.521455a6.330182 6.330182 0 0 0-8.797091-1.11709l-137.704727 102.516363a17.454545 17.454545 0 0 1-10.426182 3.444364z" fill="#1296db" p-id="3053"></path><path d="M221.090909 773.888h581.818182v34.909091h-581.818182z" fill="#1296db" p-id="3054"></path></svg>