<?xml version="1.0" standalone="no"?><!DOCTYPE svg PUBLIC "-//W3C//DTD SVG 1.1//EN" "http://www.w3.org/Graphics/SVG/1.1/DTD/svg11.dtd"><svg t="1653147332816" class="icon" viewBox="0 0 1024 1024" version="1.1" xmlns="http://www.w3.org/2000/svg" p-id="2052" xmlns:xlink="http://www.w3.org/1999/xlink" width="16" height="16"><defs><style type="text/css"></style></defs><path d="M510.533818 977.454545a461.963636 461.963636 0 0 1-311.04-119.714909 462.336 462.336 0 0 1-153.204363-321.582545C32.954182 279.854545 230.632727 60.509091 486.935273 47.173818a461.614545 461.614545 0 0 1 182.528 27.019637 17.431273 17.431273 0 0 1 10.449454 22.341818 17.408 17.408 0 0 1-22.365091 10.472727 427.147636 427.147636 0 0 0-168.797091-24.971636c-237.079273 12.334545-419.933091 215.226182-407.598545 452.305454a427.566545 427.566545 0 0 0 141.730909 297.472c85.434182 77.009455 195.886545 116.270545 310.574546 110.126546 237.079273-12.311273 419.909818-215.226182 407.598545-452.305455a17.454545 17.454545 0 0 1 34.862545-1.815273C989.230545 744.122182 791.552 963.467636 535.272727 976.802909c-8.285091 0.442182-16.523636 0.651636-24.738909 0.651636z" fill="#1296db" p-id="2053"></path><path d="M511.092364 701.742545c-104.634182 0-189.765818-85.108364-189.765819-189.742545s85.131636-189.765818 189.765819-189.765818a17.454545 17.454545 0 0 1 0 34.909091c-85.387636 0-154.856727 69.469091-154.856728 154.856727s69.469091 154.833455 154.856728 154.833455A155.019636 155.019636 0 0 0 665.949091 512a17.454545 17.454545 0 0 1 34.909091 0c0 104.634182-85.131636 189.742545-189.765818 189.742545z" fill="#1296db" p-id="2054"></path><path d="M511.092364 585.448727c-40.494545 0-73.448727-32.954182-73.448728-73.448727s32.954182-73.448727 73.448728-73.448727S584.541091 471.505455 584.541091 512s-32.930909 73.448727-73.448727 73.448727z m0-111.988363c-21.248 0-38.539636 17.291636-38.539637 38.539636s17.291636 38.539636 38.539637 38.539636 38.539636-17.291636 38.539636-38.539636-17.291636-38.539636-38.539636-38.539636z" fill="#1296db" p-id="2055"></path><path d="M651.333818 439.156364a66.280727 66.280727 0 0 1-65.792-74.123637 66.513455 66.513455 0 0 1 73.634909-57.856 66.280727 66.280727 0 0 1 57.879273 73.634909h-0.023273a66.327273 66.327273 0 0 1-65.698909 58.344728z m-0.046545-97.536a31.325091 31.325091 0 0 0-3.700364 62.394181 31.464727 31.464727 0 0 0 34.816-27.368727 31.371636 31.371636 0 0 0-31.115636-35.025454z m48.430545 37.12h0.232727-0.232727zM864.325818 417.419636a66.327273 66.327273 0 0 1-65.792-74.123636 66.397091 66.397091 0 0 1 73.658182-57.856c17.547636 2.094545 33.256727 10.914909 44.171636 24.832a65.861818 65.861818 0 0 1 13.684364 48.802909 66.373818 66.373818 0 0 1-65.722182 58.344727z m-0.069818-97.536a31.418182 31.418182 0 0 0-31.069091 27.601455 31.371636 31.371636 0 0 0 27.392 34.816 31.581091 31.581091 0 0 0 34.792727-27.368727 31.115636 31.115636 0 0 0-6.446545-23.063273 31.069091 31.069091 0 0 0-24.669091-11.985455z" fill="#1296db" p-id="2056"></path><path d="M699.508364 397.986909a17.454545 17.454545 0 0 1-17.221819-20.456727L730.274909 102.632727a42.821818 42.821818 0 0 1 37.073455-35.304727l160.488727-19.968a42.309818 42.309818 0 0 1 36.468364 13.032727c9.495273 9.984 13.591273 23.482182 11.217454 37.050182l-45.265454 259.490909a17.454545 17.454545 0 1 1-34.397091-6.004363l45.265454-259.49091a7.912727 7.912727 0 0 0-2.117818-6.981818 7.912727 7.912727 0 0 0-6.865455-2.443636l-160.488727 19.968a8.075636 8.075636 0 0 0-6.981818 6.656L716.683636 383.534545a17.454545 17.454545 0 0 1-17.175272 14.452364z" fill="#1296db" p-id="2057"></path><path d="M745.914182 204.986182a17.454545 17.454545 0 0 1-2.932364-34.653091l104.727273-17.989818a17.454545 17.454545 0 0 1 5.911273 34.397091l-104.727273 17.989818a18.618182 18.618182 0 0 1-2.978909 0.256z" fill="#1296db" p-id="2058"></path></svg>